<?xml version="1.0" encoding="UTF-8"?>
<svg xmlns="http://www.w3.org/2000/svg" width="182" height="25" viewBox="0 0 182 25" fill="none">
  <path d="M11.984 24.48C9.68 24.48 7.70667 23.9787 6.064 22.976C4.42133 21.9627 3.15733 20.5547 2.272 18.752C1.39733 16.9493 0.96 14.8587 0.96 12.48C0.96 10.1013 1.39733 8.01067 2.272 6.208C3.15733 4.40533 4.42133 3.00267 6.064 2C7.70667 0.986666 9.68 0.48 11.984 0.48C14.64 0.48 16.8533 1.14667 18.624 2.48C20.3947 3.80267 21.6373 5.58933 22.352 7.84L18.464 8.912C18.016 7.408 17.2533 6.23466 16.176 5.392C15.0987 4.53867 13.7013 4.112 11.984 4.112C10.4373 4.112 9.14667 4.45867 8.112 5.152C7.088 5.84533 6.31467 6.82133 5.792 8.08C5.28 9.328 5.01867 10.7947 5.008 12.48C5.008 14.1653 5.264 15.6373 5.776 16.896C6.29867 18.144 7.07733 19.1147 8.112 19.808C9.14667 20.5013 10.4373 20.848 11.984 20.848C13.7013 20.848 15.0987 20.4213 16.176 19.568C17.2533 18.7147 18.016 17.5413 18.464 16.048L22.352 17.12C21.6373 19.3707 20.3947 21.1627 18.624 22.496C16.8533 23.8187 14.64 24.48 11.984 24.48ZM25.865 24V6.72H29.273V10.928L28.857 10.384C29.0703 9.808 29.353 9.28533 29.705 8.816C30.0677 8.336 30.4997 7.94133 31.001 7.632C31.4277 7.344 31.897 7.12 32.409 6.96C32.9317 6.78933 33.465 6.688 34.009 6.656C34.553 6.61333 35.081 6.63467 35.593 6.72V10.32C35.081 10.1707 34.489 10.1227 33.817 10.176C33.1557 10.2293 32.5583 10.416 32.025 10.736C31.4917 11.024 31.0543 11.392 30.713 11.84C30.3823 12.288 30.137 12.8 29.977 13.376C29.817 13.9413 29.737 14.5547 29.737 15.216V24H25.865ZM38.9663 4.096V0.559999H42.8223V4.096H38.9663ZM38.9663 24V6.72H42.8223V24H38.9663ZM55.119 24.48C53.3377 24.48 51.8177 24.0853 50.559 23.296C49.3003 22.496 48.335 21.408 47.663 20.032C47.0017 18.656 46.6657 17.0987 46.655 15.36C46.6657 13.5893 47.0123 12.0213 47.695 10.656C48.3883 9.28 49.3697 8.20267 50.639 7.424C51.9083 6.63467 53.4177 6.24 55.167 6.24C57.1297 6.24 58.7883 6.736 60.143 7.728C61.5083 8.70933 62.399 10.0533 62.815 11.76L58.975 12.8C58.6763 11.872 58.1803 11.152 57.487 10.64C56.7937 10.1173 56.0043 9.856 55.119 9.856C54.1163 9.856 53.2897 10.096 52.639 10.576C51.9883 11.0453 51.5083 11.696 51.199 12.528C50.8897 13.36 50.735 14.304 50.735 15.36C50.735 17.0027 51.103 18.3307 51.839 19.344C52.575 20.3573 53.6683 20.864 55.119 20.864C56.143 20.864 56.9483 20.6293 57.535 20.16C58.1323 19.6907 58.5803 19.0133 58.879 18.128L62.815 19.008C62.2817 20.768 61.3483 22.1227 60.015 23.072C58.6817 24.0107 57.0497 24.48 55.119 24.48ZM65.9893 24L66.0213 0.959999H69.9253V15.04L76.2453 6.72H81.0613L74.3573 15.36L81.6373 24H76.5333L69.9253 15.68V24H65.9893ZM149.214 24V4.576H141.758V0.959999H160.526V4.576H153.07V24H149.214ZM168.268 24L161.004 0.959999H164.972L171.052 20.256L177.212 0.959999H181.18L173.916 24H168.268Z" fill="white"></path>
  <path d="M83.56 24V0.959999H87.416V20.384H97.592V24H83.56ZM100.623 4.096V0.559999H104.479V4.096H100.623ZM100.623 24V6.72H104.479V24H100.623ZM113.943 24L107.671 6.72H111.527L115.879 19.248L120.215 6.72H124.087L117.815 24H113.943ZM134.19 24.48C132.44 24.48 130.904 24.1013 129.582 23.344C128.259 22.5867 127.224 21.536 126.478 20.192C125.742 18.848 125.374 17.3013 125.374 15.552C125.374 13.664 125.736 12.0267 126.462 10.64C127.187 9.24267 128.195 8.16 129.486 7.392C130.776 6.624 132.27 6.24 133.966 6.24C135.758 6.24 137.278 6.66133 138.526 7.504C139.784 8.336 140.718 9.51467 141.326 11.04C141.934 12.5653 142.163 14.3627 142.014 16.432H138.19V15.024C138.179 13.1467 137.848 11.776 137.198 10.912C136.547 10.048 135.523 9.616 134.126 9.616C132.547 9.616 131.374 10.1067 130.606 11.088C129.838 12.0587 129.454 13.4827 129.454 15.36C129.454 17.1093 129.838 18.464 130.606 19.424C131.374 20.384 132.494 20.864 133.966 20.864C134.915 20.864 135.731 20.656 136.414 20.24C137.107 19.8133 137.64 19.2 138.014 18.4L141.822 19.552C141.16 21.1093 140.136 22.32 138.75 23.184C137.374 24.048 135.854 24.48 134.19 24.48ZM128.238 16.432V13.52H140.126V16.432H128.238Z" fill="#FF1B1B"></path>
</svg>
